<svg id="Camada_1" data-name="Camada 1" xmlns="http://www.w3.org/2000/svg" viewBox="0 0 750 425"><defs><style>.cls-1{fill:#fff;}</style></defs><path class="cls-1" d="M220.13,121.92q-3.81,36.24-24.72,55T125,195.58q-50.22,0-68.13-17.77T43,121.92L52.2,34h50.45l-9.24,87.88q-2.14,20.37,6.59,32t26,11.61a42.72,42.72,0,0,0,29-10.78q12.38-10.77,14.7-32.8L178.92,34h50.45Z"/><path class="cls-1" d="M515.06,191.79h-54l1-45.48a21.6,21.6,0,0,0-3.26-8.41,21.24,21.24,0,0,0-7.71-6.75q-7.57,0-25.29-.47t-18.9-.47l-6.47,61.58H350L366.55,34H471a70.56,70.56,0,0,1,38.53,10.9q17.22,10.89,15.1,31a35.76,35.76,0,0,1-12.18,23.45q-10.73,9.72-26.55,13.74l-.2,1.9a53.84,53.84,0,0,1,12,2.84c3.95,1.42,7.95,2.94,10.75,5.92,6.08,6.47,5.45,16.42,5.77,19.42ZM471.45,81.65q.8-7.58-6.92-13a28.79,28.79,0,0,0-17-5.44H413.94l-4,38.37H444q10.89,0,18.67-5.22A19.28,19.28,0,0,0,471.45,81.65Z"/><path class="cls-1" d="M701.35,191.79H632.9L572.36,85,561.13,191.79H514L530.58,34h71.77L659.82,138.5,670.8,34h47.13Z"/><path class="cls-1" d="M35.1,205h2.78l-2.25,13.48c-.09.53-.16,1-.21,1.52a12.25,12.25,0,0,0-.07,1.27,3.2,3.2,0,0,0,.76,2.27,2.8,2.8,0,0,0,2.15.81A3.08,3.08,0,0,0,41,223.11a13.37,13.37,0,0,0,1.52-5l2.17-13h2.8l-2.25,13.33c0,.13,0,.34-.1.63a19.63,19.63,0,0,1-1.53,5.51,5.19,5.19,0,0,1-2.16,2.28,6.91,6.91,0,0,1-3.37.77A5.31,5.31,0,0,1,34,226a5.77,5.77,0,0,1-1.47-4.15,16.3,16.3,0,0,1,.08-1.64c.05-.59.13-1.22.23-1.88Z"/><path class="cls-1" d="M48,227.12,51.69,205h3.82l5.36,17.69,3-17.69h2.77l-3.69,22.08H59.3l-5.5-18.23-3,18.23Z"/><path class="cls-1" d="M67,227.12,70.65,205h2.77l-3.67,22.08Z"/><path class="cls-1" d="M75,205h2.8l2.48,18.47L88.6,205h3L81.45,227.12H78.11Z"/><path class="cls-1" d="M89.84,227.12,93.52,205h9.8l-.53,3.11h-7l-1,6.29h7l-.49,3h-7L93.15,224h7l-.51,3.17Z"/><path class="cls-1" d="M103.73,227.12,107.41,205h4.81a7.24,7.24,0,0,1,5.16,1.71,6.31,6.31,0,0,1,1.83,4.84,7.45,7.45,0,0,1-1.67,5,6.74,6.74,0,0,1-4.58,2.27l3.88,8.27h-3.09l-5.09-10.85h.48c2.73,0,4.45-.29,5.17-.77a4.27,4.27,0,0,0,1.41-1.6,4.65,4.65,0,0,0,.51-2.16,3.59,3.59,0,0,0-1-2.72,4,4,0,0,0-2.88-1l-1.2,0c-.45,0-.93,0-1.44.1l-3.17,18.94Z"/><path class="cls-1" d="M120.57,220.06h2.92c0,.09,0,.19,0,.32s0,.22,0,.28a4.77,4.77,0,0,0,.72,2.86,2.58,2.58,0,0,0,2.18,1,2.85,2.85,0,0,0,2.25-1,3.76,3.76,0,0,0,.88-2.56,3.6,3.6,0,0,0-.43-1.84,6.56,6.56,0,0,0-1.93-1.79l-.71-.48a12.64,12.64,0,0,1-2.7-2.21,5.29,5.29,0,0,1-.94-1.71,6.4,6.4,0,0,1-.32-2.06,6.33,6.33,0,0,1,1.62-4.45,5.31,5.31,0,0,1,4.1-1.76,4.76,4.76,0,0,1,3.75,1.52,6,6,0,0,1,1.37,4.16v.42a2.65,2.65,0,0,0,0,.27h-2.84c0-.06,0-.13,0-.23a1.79,1.79,0,0,0,0-.21,3.39,3.39,0,0,0-.66-2.2,2.2,2.2,0,0,0-1.79-.81,2.37,2.37,0,0,0-1.85.89,3.1,3.1,0,0,0-.77,2.12q0,1.72,3.24,3.92l1,.72a6.33,6.33,0,0,1,2.06,2.38,6.85,6.85,0,0,1,.74,3.17,7.11,7.11,0,0,1-1.76,4.89,5.61,5.61,0,0,1-4.38,2,5.25,5.25,0,0,1-4.29-1.81,8,8,0,0,1-1.49-5.18Z"/><path class="cls-1" d="M134,227.12,137.67,205h2.78l-3.68,22.08Z"/><path class="cls-1" d="M140.7,227.12,144.35,205h5a8.31,8.31,0,0,1,6.47,2.51q2.3,2.52,2.29,7.09a13.34,13.34,0,0,1-3,9.06,9.93,9.93,0,0,1-7.89,3.42ZM149.35,208H146.6l-2.68,16.18h3.34a7.32,7.32,0,0,0,5.82-2.55,9.87,9.87,0,0,0,2.2-6.7,7.69,7.69,0,0,0-1.52-5.15A5.46,5.46,0,0,0,149.35,208Z"/><path class="cls-1" d="M157,227.12,167.41,205h3.17l3.85,22.08h-2.88l-1.07-6.34H163L160,227.12Zm13-9.42-1.4-9.28-4.23,9.28Z"/><path class="cls-1" d="M175.7,227.12,179.35,205h5a8.28,8.28,0,0,1,6.46,2.51q2.3,2.52,2.3,7.09a13.29,13.29,0,0,1-3,9.06,9.91,9.91,0,0,1-7.88,3.42ZM184.35,208h-2.76l-2.67,16.18h3.34a7.32,7.32,0,0,0,5.82-2.55,9.87,9.87,0,0,0,2.2-6.7,7.74,7.74,0,0,0-1.52-5.15A5.46,5.46,0,0,0,184.35,208Z"/><path class="cls-1" d="M194.44,227.12,198.12,205h9.81l-.54,3.11h-7l-1,6.29h7l-.48,3h-7l-1.1,6.49h7l-.51,3.17Z"/><polygon class="cls-1" points="230.64 20.89 229.26 34.04 366.54 34.04 367.93 20.89 230.64 20.89"/><polygon class="cls-1" points="315.02 217.7 320.65 217.7 319.24 208.42 315.02 217.7"/><path class="cls-1" d="M259.57,208h-2.75l-2.68,16.18h3.34a7.32,7.32,0,0,0,5.82-2.55,9.87,9.87,0,0,0,2.2-6.7,7.69,7.69,0,0,0-1.52-5.15A5.46,5.46,0,0,0,259.57,208Z"/><path class="cls-1" d="M272.82,98.7H352l-3.36,32H269.46L263,191.79H212.67l-5.09,48.49H344.86L363.23,65.54H276.31ZM229.6,208.14h-7l-1,6.3h7l-.49,3h-7l-1.63,9.66h-2.78L220.33,205h9.8Zm16.93,0h-7l-1,6.3h7l-.48,3h-7l-1.1,6.49h7l-.51,3.17h-9.8L237.26,205h9.81Zm18.84,15.56a9.93,9.93,0,0,1-7.89,3.42h-6.56L254.58,205h5a8.31,8.31,0,0,1,6.47,2.51q2.29,2.52,2.29,7.09A13.34,13.34,0,0,1,265.37,223.7Zm20.72-15.56h-7l-1,6.3h7l-.49,3h-7L276.45,224h7l-.51,3.17h-9.79L276.82,205h9.8Zm18.22,8.44a6.74,6.74,0,0,1-4.57,2.27l3.87,8.27h-3.09l-5.09-10.85h.49c2.72,0,4.44-.29,5.16-.77a4.27,4.27,0,0,0,1.41-1.6,4.65,4.65,0,0,0,.51-2.16,3.59,3.59,0,0,0-1-2.72,4,4,0,0,0-2.87-1l-1.2,0c-.45,0-.94,0-1.45.1l-3.17,18.94H290.5L294.18,205H299a7.28,7.28,0,0,1,5.17,1.71,6.31,6.31,0,0,1,1.83,4.84A7.4,7.4,0,0,1,304.31,216.58Zm17.89,10.54-1.07-6.34h-7.52l-2.95,6.34h-3L318.07,205h3.17l3.84,22.08Zm16.86,0h-9.18L333.55,205h2.81L333.22,224h6.37Z"/><path class="cls-1" d="M352.83,227.12,356.48,205h5a8.31,8.31,0,0,1,6.47,2.51q2.3,2.52,2.29,7.09a13.29,13.29,0,0,1-3,9.06,9.9,9.9,0,0,1-7.88,3.42ZM361.48,208h-2.75l-2.68,16.18h3.34a7.32,7.32,0,0,0,5.82-2.55,9.87,9.87,0,0,0,2.2-6.7,7.74,7.74,0,0,0-1.52-5.15A5.46,5.46,0,0,0,361.48,208Z"/><path class="cls-1" d="M372.53,217.52a16.84,16.84,0,0,1,.81-5.36,11.66,11.66,0,0,1,2.37-4.18,9.68,9.68,0,0,1,7.54-3.38,7.88,7.88,0,0,1,6.31,2.76,11,11,0,0,1,2.36,7.37,17.27,17.27,0,0,1-.49,4.2,13.7,13.7,0,0,1-1.45,3.59,10.45,10.45,0,0,1-3.7,3.74,9.67,9.67,0,0,1-5,1.33,8.09,8.09,0,0,1-6.41-2.73A10.77,10.77,0,0,1,372.53,217.52Zm2.83-.12a8,8,0,0,0,1.65,5.3,5.4,5.4,0,0,0,4.38,2,6.74,6.74,0,0,0,5.54-2.75,11.21,11.21,0,0,0,2.16-7.12,8.14,8.14,0,0,0-1.64-5.35,5.4,5.4,0,0,0-4.4-2,6.75,6.75,0,0,0-5.53,2.77A11.25,11.25,0,0,0,375.36,217.4Z"/><path class="cls-1" d="M401.44,227.12,405.12,205h4.82a7.27,7.27,0,0,1,5.16,1.71,6.31,6.31,0,0,1,1.83,4.84,7.4,7.4,0,0,1-1.68,5,6.74,6.74,0,0,1-4.57,2.27l3.87,8.27h-3.09l-5.09-10.85h.49c2.72,0,4.44-.29,5.16-.77a4.27,4.27,0,0,0,1.41-1.6,4.65,4.65,0,0,0,.51-2.16,3.59,3.59,0,0,0-1-2.72,4.08,4.08,0,0,0-2.88-1l-1.2,0c-.45,0-.94,0-1.45.1l-3.17,18.94Z"/><path class="cls-1" d="M417.82,227.12,421.5,205h2.77l-3.68,22.08Z"/><path class="cls-1" d="M425.5,217.52a16.84,16.84,0,0,1,.81-5.36,12,12,0,0,1,2.37-4.18,9.72,9.72,0,0,1,7.54-3.38,7.9,7.9,0,0,1,6.32,2.76,11,11,0,0,1,2.35,7.37,17.27,17.27,0,0,1-.49,4.2,13,13,0,0,1-1.45,3.59,10.45,10.45,0,0,1-3.7,3.74,9.67,9.67,0,0,1-5,1.33,8.07,8.07,0,0,1-6.4-2.73A10.77,10.77,0,0,1,425.5,217.52Zm2.83-.12a8,8,0,0,0,1.65,5.3,5.4,5.4,0,0,0,4.39,2,6.75,6.75,0,0,0,5.54-2.75,11.2,11.2,0,0,0,2.15-7.12,8.14,8.14,0,0,0-1.63-5.35,5.42,5.42,0,0,0-4.4-2,6.76,6.76,0,0,0-5.54,2.77A11.25,11.25,0,0,0,428.33,217.4Z"/><path class="cls-1" d="M471.32,219.05h-8.66l.49-2.78h11.59a13.76,13.76,0,0,1-3.4,8.24,9.35,9.35,0,0,1-7.15,3.08,8.14,8.14,0,0,1-6.49-2.77,11.18,11.18,0,0,1-2.38-7.55,15.47,15.47,0,0,1,.77-4.9,12.77,12.77,0,0,1,2.2-4.07,9.94,9.94,0,0,1,3.4-2.75,9.57,9.57,0,0,1,4.21-.92,8.28,8.28,0,0,1,5.69,2,10.25,10.25,0,0,1,3,5.72h-3a6.64,6.64,0,0,0-2.08-3.56,5.48,5.48,0,0,0-3.65-1.25,6.81,6.81,0,0,0-5.52,2.77,10.79,10.79,0,0,0-2.22,7,8.29,8.29,0,0,0,1.66,5.42,5.42,5.42,0,0,0,4.4,2,6.8,6.8,0,0,0,4.32-1.55A8.26,8.26,0,0,0,471.32,219.05Z"/><path class="cls-1" d="M476,227.12,479.66,205h4.81a7.28,7.28,0,0,1,5.17,1.71,6.35,6.35,0,0,1,1.83,4.84,7.4,7.4,0,0,1-1.68,5,6.74,6.74,0,0,1-4.57,2.27l3.87,8.27H486l-5.09-10.85h.48c2.73,0,4.45-.29,5.17-.77a4.27,4.27,0,0,0,1.41-1.6,4.65,4.65,0,0,0,.51-2.16,3.59,3.59,0,0,0-1-2.72,4,4,0,0,0-2.87-1l-1.2,0c-.45,0-.94,0-1.45.1l-3.17,18.94Z"/><path class="cls-1" d="M489.66,227.12,500.08,205h3.17l3.84,22.08h-2.88l-1.07-6.34h-7.52l-2.95,6.34Zm13-9.42-1.41-9.28L497,217.7Z"/><path class="cls-1" d="M508.68,227.12,512.39,205h3.82l5.37,17.69,3-17.69h2.78l-3.7,22.08H520l-5.5-18.23-3.05,18.23Z"/><path class="cls-1" d="M527.64,227.12,531.29,205h5a8.31,8.31,0,0,1,6.47,2.51q2.29,2.52,2.29,7.09a13.34,13.34,0,0,1-3,9.06,9.93,9.93,0,0,1-7.89,3.42ZM536.29,208h-2.75l-2.68,16.18h3.34a7.32,7.32,0,0,0,5.82-2.55,9.87,9.87,0,0,0,2.2-6.7,7.69,7.69,0,0,0-1.52-5.15A5.46,5.46,0,0,0,536.29,208Z"/><path class="cls-1" d="M546.38,227.12,550.06,205h9.81l-.53,3.11h-7l-1,6.29h7l-.48,3h-7L549.7,224h7l-.51,3.17Z"/><path class="cls-1" d="M568.57,227.12,572.22,205h5a8.31,8.31,0,0,1,6.47,2.51q2.3,2.52,2.3,7.09a13.29,13.29,0,0,1-3,9.06,9.93,9.93,0,0,1-7.88,3.42ZM577.21,208h-2.75l-2.67,16.18h3.34a7.31,7.31,0,0,0,5.81-2.55,9.88,9.88,0,0,0,2.21-6.7,7.74,7.74,0,0,0-1.52-5.15A5.49,5.49,0,0,0,577.21,208Z"/><path class="cls-1" d="M588.26,217.52a16.84,16.84,0,0,1,.81-5.36,12,12,0,0,1,2.37-4.18A9.72,9.72,0,0,1,599,204.6a7.88,7.88,0,0,1,6.31,2.76,10.91,10.91,0,0,1,2.36,7.37,17.27,17.27,0,0,1-.49,4.2,13.37,13.37,0,0,1-1.45,3.59,10.45,10.45,0,0,1-3.7,3.74,9.67,9.67,0,0,1-5,1.33,8.07,8.07,0,0,1-6.4-2.73A10.72,10.72,0,0,1,588.26,217.52Zm2.83-.12a8,8,0,0,0,1.65,5.3,5.4,5.4,0,0,0,4.39,2,6.72,6.72,0,0,0,5.53-2.75,11.21,11.21,0,0,0,2.16-7.12,8.14,8.14,0,0,0-1.63-5.35,5.43,5.43,0,0,0-4.41-2,6.75,6.75,0,0,0-5.53,2.77A11.25,11.25,0,0,0,591.09,217.4Z"/><path class="cls-1" d="M617.47,227.12,621.18,205H625l5.36,17.69,3-17.69h2.78l-3.69,22.08h-3.64l-5.49-18.23-3,18.23Z"/><path class="cls-1" d="M637.41,217.52a16.56,16.56,0,0,1,.82-5.36A11.66,11.66,0,0,1,640.6,208a9.88,9.88,0,0,1,3.38-2.53,10,10,0,0,1,4.15-.85,7.9,7.9,0,0,1,6.32,2.76,11,11,0,0,1,2.36,7.37,17.26,17.26,0,0,1-.5,4.2,13,13,0,0,1-1.45,3.59,10.34,10.34,0,0,1-3.69,3.74,9.71,9.71,0,0,1-5,1.33,8.08,8.08,0,0,1-6.4-2.73A10.77,10.77,0,0,1,637.41,217.52Zm2.83-.12a8,8,0,0,0,1.66,5.3,5.38,5.38,0,0,0,4.38,2,6.75,6.75,0,0,0,5.54-2.75,11.21,11.21,0,0,0,2.16-7.12,8.14,8.14,0,0,0-1.64-5.35,5.42,5.42,0,0,0-4.4-2,6.74,6.74,0,0,0-5.53,2.77A11.25,11.25,0,0,0,640.24,217.4Z"/><path class="cls-1" d="M658,227.12,661.7,205h4.81a7.28,7.28,0,0,1,5.17,1.71,6.35,6.35,0,0,1,1.83,4.84,7.4,7.4,0,0,1-1.68,5,6.74,6.74,0,0,1-4.57,2.27l3.87,8.27H668L663,216.27h.48c2.73,0,4.45-.29,5.17-.77a4.27,4.27,0,0,0,1.41-1.6,4.65,4.65,0,0,0,.51-2.16,3.59,3.59,0,0,0-1-2.72,4,4,0,0,0-2.87-1l-1.2,0c-.45,0-.94,0-1.45.1l-3.17,18.94Z"/><path class="cls-1" d="M677,227.12l3.19-19H676l.51-3h11l-.51,3h-4l-3.18,19Z"/><path class="cls-1" d="M686.34,227.12,690,205h9.81l-.54,3.11h-7l-1,6.29h7l-.48,3h-7l-1.1,6.49h7l-.5,3.17Z"/><path class="cls-1" d="M188.46,270.71l-25.68,33.36H117V399H77.29V304.07H17.1l25.69-33.36Z"/><path class="cls-1" d="M214.34,399l24-33h44.18q6.22,0,10.83.38-2.69-3.45-6.23-8.72t-6.8-9.87l-23-33.93L197.09,399h-47l82.23-116a44.61,44.61,0,0,1,10.16-10q6.12-4.39,15.52-4.4,9,0,15,4.12A39.18,39.18,0,0,1,283.34,283l80.13,116Z"/><path class="cls-1" d="M540.77,333.58a58.43,58.43,0,0,1-5.85,26,63.57,63.57,0,0,1-16.1,20.7A76.17,76.17,0,0,1,494.38,394a92.3,92.3,0,0,1-30.86,5H377.65V319h39.87v47h46a50.52,50.52,0,0,0,15.24-2.21,35.83,35.83,0,0,0,12-6.23,29.51,29.51,0,0,0,7.86-9.67,28.7,28.7,0,0,0,0-25,29.29,29.29,0,0,0-8.05-9.87,40.58,40.58,0,0,0-12.08-6.52,45.46,45.46,0,0,0-15-2.39H377.65L403,270.71h60.57a100.41,100.41,0,0,1,31.05,4.6A75,75,0,0,1,519,288.25a59.64,59.64,0,0,1,16,19.94A56.39,56.39,0,0,1,540.77,333.58Z"/><path class="cls-1" d="M679.73,321.89q23.58,0,35.85,8.72T727.84,357a48.2,48.2,0,0,1-3.06,17.63A31.25,31.25,0,0,1,715,387.83a47,47,0,0,1-17.15,8.24,95.1,95.1,0,0,1-25,2.88H553.42l25.49-33h97q7.1,0,10.35-2.21c2.17-1.46,3.26-3.86,3.26-7.18s-1.09-5.69-3.26-7.1-5.62-2.1-10.35-2.1H606.13a75.69,75.69,0,0,1-21.47-2.69,43.21,43.21,0,0,1-14.95-7.47,29.52,29.52,0,0,1-8.82-11.6A38.38,38.38,0,0,1,558,310.58a41.14,41.14,0,0,1,3.16-16.38A31.58,31.58,0,0,1,571,281.64q6.6-5.17,17-8.05a95.1,95.1,0,0,1,25-2.88H724.39L698.9,304.07H610q-6.9,0-10.25,1.91t-3.36,6.9q0,5,3.36,7t10.25,2Z"/></svg>